# xmcd
#
# Track frame offsets: 
#        150
#        15498
#        28669
#        41798
#        51917
#        66212
#        79654
#        92074
#        103087
#        116636
#
# Disc length: 1729 seconds
#
# Revision: 0
# Processed by: cddbd v1.5.2PL0 Copyright (c) Steve Scherf et al.
# Submitted via: ExactAudioCopy v1.3
#
DISCID=7f06bf0a
DTITLE=Solomon Burke - Proud Mary
DYEAR=1969
DGENRE=Soul
TTITLE0=Proud Mary
TTITLE1=These Arms Of Mine
TTITLE2=I'll Be Doggone
TTITLE3=How Big A Fool (Can A Fool Be)
TTITLE4=Don't Wait Too Long
TTITLE5=That Lucky Old Sun
TTITLE6=Uptight Good Woman
TTITLE7=I Can't Stop (No No No)
TTITLE8=Please Send Me Someone To Love
TTITLE9=What Am I Living For
EXTD=
EXTT0=
EXTT1=
EXTT2=
EXTT3=
EXTT4=
EXTT5=
EXTT6=
EXTT7=
EXTT8=
EXTT9=
PLAYORDER=
